<svg width="24" height="26" viewBox="0 0 24 26" fill="none" xmlns="http://www.w3.org/2000/svg">
<path d="M18.8482 13.381C18.7369 13.2602 18.6046 13.1643 18.459 13.0989C18.3135 13.0335 18.1574 12.9999 17.9998 12.9999C17.8422 12.9999 17.6862 13.0335 17.5406 13.0989C17.395 13.1643 17.2628 13.2602 17.1514 13.381L15.2386 15.4532C14.3519 15.1672 12.6971 14.5172 11.6483 13.381C10.5995 12.2448 9.9995 10.4522 9.7355 9.49146L11.6483 7.41929C11.7598 7.29866 11.8483 7.1554 11.9087 6.99769C11.969 6.83998 12.0001 6.67093 12.0001 6.5002C12.0001 6.32946 11.969 6.16041 11.9087 6.0027C11.8483 5.84499 11.7598 5.70173 11.6483 5.58111L6.84833 0.381158C6.73698 0.260329 6.60474 0.164471 6.45916 0.0990678C6.31359 0.0336646 6.15754 0 5.99994 0C5.84234 0 5.68629 0.0336646 5.54071 0.0990678C5.39513 0.164471 5.26289 0.260329 5.15155 0.381158L1.89718 3.90672C1.44118 4.40072 1.18439 5.07931 1.19399 5.7722C1.22159 7.62338 1.67398 14.0531 6.35153 19.1205C11.0291 24.1878 16.9642 24.6766 18.6742 24.7078H18.7078C19.3414 24.7078 19.9402 24.4374 20.3938 23.946L23.6482 20.4205C23.7597 20.2998 23.8482 20.1566 23.9086 19.9989C23.9689 19.8412 24 19.6721 24 19.5014C24 19.3306 23.9689 19.1616 23.9086 19.0039C23.8482 18.8462 23.7597 18.7029 23.6482 18.5823L18.8482 13.381ZM18.6958 22.1065C17.1982 22.0792 12.0743 21.6437 8.04832 17.281C4.00916 12.9052 3.61796 7.33479 3.59396 5.7449L5.99994 3.13843L9.10311 6.5002L7.55152 8.18108C7.41048 8.33376 7.30678 8.52211 7.24979 8.72911C7.1928 8.93611 7.18432 9.15523 7.22513 9.36667C7.25393 9.51617 7.95832 13.0612 9.9503 15.2192C11.9423 17.3772 15.2146 18.1403 15.3526 18.1715C15.5477 18.2169 15.7502 18.2085 15.9414 18.1469C16.1327 18.0853 16.3065 17.9726 16.447 17.8192L17.9998 16.1383L21.103 19.5001L18.6958 22.1065Z" fill="white"/>
</svg>
