<svg width="24" height="31" viewBox="0 0 24 31" fill="none" xmlns="http://www.w3.org/2000/svg">
<g clip-path="url(#clip0_1483_820)">
<path d="M12 18.2501C15.3089 18.2501 17.9999 15.5591 17.9999 12.2501C17.9999 8.94117 15.3089 6.2502 12 6.2502C8.69101 6.2502 6.00004 8.94117 6.00004 12.2501C6.00004 15.5591 8.69101 18.2501 12 18.2501ZM12 9.25016C13.6545 9.25016 14.9999 10.5956 14.9999 12.2501C14.9999 13.9046 13.6545 15.2501 12 15.2501C10.3455 15.2501 9.00001 13.9046 9.00001 12.2501C9.00001 10.5956 10.3455 9.25016 12 9.25016Z" fill="white"/>
<path d="M11.13 29.9709C11.3839 30.1522 11.688 30.2497 12 30.2497C12.312 30.2497 12.6161 30.1522 12.87 29.9709C13.326 29.6484 24.0434 21.91 23.9999 12.2501C23.9999 5.63369 18.6164 0.250244 12 0.250244C5.38357 0.250244 0.000132055 5.63369 0.000132055 12.2426C-0.0433675 21.91 10.674 29.6484 11.13 29.9709ZM12 3.25021C16.9634 3.25021 20.9999 7.28667 20.9999 12.2576C21.0314 18.9145 14.418 24.892 12 26.8525C9.58353 24.8905 2.9686 18.9115 3.0001 12.2501C3.0001 7.28667 7.03655 3.25021 12 3.25021Z" fill="white"/>
</g>
<defs>
<clipPath id="clip0_1483_820">
<rect width="24" height="29.9997" fill="white" transform="translate(0 0.250244)"/>
</clipPath>
</defs>
</svg>
